<svg xmlns="http://www.w3.org/2000/svg" viewBox="0 0 50 50" width="30" height="30"><path d="M44.78 13.155c-.78-2.786-2.325-4.99-4.591-6.55-2.86-1.971-6.149-2.669-8.989-3.093-3.931-.586-7.491-.669-10.882-.254-3.181.39-5.574 1.011-7.76 2.016-4.281 1.967-6.851 5.15-7.637 9.461a59.5 59.5 0 00-.787 5.788c-.343 4.172-.032 7.863.952 11.285.959 3.336 2.635 5.719 5.123 7.284.635.399 1.446.688 2.231.966.446.158.879.311 1.235.476.328.152.328.181.325.455-.028 2.372 0 7.019 0 7.019l.006.992h1.783l.291-.28c.188-.181 4.605-4.447 6.177-6.164l.214-.241c.271-.31.271-.31.55-.315a188.51 188.51 0 006.452-.241c2.614-.143 5.642-.395 8.493-1.585 2.61-1.09 4.514-2.819 5.659-5.14 1.194-2.421 1.903-5.043 2.169-8.016.466-5.225.135-9.76-1.014-13.863zm-9.398 20.324c-.654 1.069-1.633 1.809-2.786 2.291-.842.352-1.702.278-2.532-.074-6.968-2.948-12.43-7.595-16.042-14.274-.744-1.375-1.262-2.874-1.855-4.328-.122-.299-.114-.65-.167-.976.051-2.35 1.853-3.671 3.673-4.072.696-.154 1.311.092 1.828.585a16.076 16.076 0 013.408 4.716c.373.777.205 1.466-.43 2.044a5.56 5.56 0 01-.411.339c-1.446 1.088-1.659 1.91-.888 3.547 1.313 2.786 3.49 4.656 6.308 5.816.743.306 1.442.155 2.009-.447.076-.081.162-.158.218-.251 1.111-1.853 2.722-1.669 4.209-.612.977.695 1.927 1.426 2.893 2.135 1.473 1.081 1.46 2.097.565 3.561zM26.143 15a5.95 5.95 0 00-.979.081 1 1 0 11-.329-1.973A8.072 8.072 0 0126.143 13C30.476 13 34 16.525 34 20.857c0 .44-.037.88-.108 1.309a1.002 1.002 0 01-1.153.82 1 1 0 01-.82-1.152A5.864 5.864 0 0026.143 15zM31 21a1 1 0 01-2 0c0-1.654-1.346-3-3-3a1 1 0 010-2c2.757 0 5 2.243 5 5zm5.709 2.221a.999.999 0 11-1.95-.442 8.87 8.87 0 00.218-1.961c0-4.862-3.956-8.818-8.818-8.818a8.87 8.87 0 00-1.961.218.999.999 0 11-.442-1.95A10.875 10.875 0 0126.16 10c5.965 0 10.818 4.853 10.818 10.818 0 .811-.091 1.62-.269 2.403z"/></svg>