<svg viewBox="0 0 16.933 16.933" width="25" height="25" xmlns="http://www.w3.org/2000/svg"><path d="M.795 0A.798.798 0 000 .793c0 .342.222.638.53.749v2.163a2.9 2.9 0 00.626 1.805c.237.402.478.876.66 1.37a.799.799 0 00-.757.794c0 .141.037.274.103.39a.794.794 0 00-.367.666c0 .202.077.389.204.53a.79.79 0 00-.204.529c0 .435.358.794.793.794v.53c0 .435.358.793.793.793h2.117a.797.797 0 00.794-.793v-.53a.8.8 0 00-.529-.748V8.73h.131a.93.93 0 00.927-.925.931.931 0 00-.762-.911c.182-.5.425-.978.664-1.384a2.898 2.898 0 00.627-1.805V1.542a.8.8 0 00.53-.75A.796.796 0 006.085 0zm13.758.793a.265.265 0 00-.266.266h-.263a2.912 2.912 0 00-2.898 2.646H8.311l.344-.343a.265.265 0 00-.376-.374l-.792.793a.265.265 0 000 .375l.792.793a.265.265 0 00.376-.373l-.344-.344h2.815a2.915 2.915 0 002.632 2.636V8.2a.258.258 0 01-.263.265H11.89a.675.675 0 00-.069-.219.548.548 0 00-.264-.23c-.068-.029-.089-.036-.118-.06a.52.52 0 01-.13-.207.527.527 0 01-.059-.239c.003-.037.012-.056.039-.125a.55.55 0 00.018-.351c-.045-.137-.133-.242-.271-.379-.139-.136-.248-.222-.386-.265a.552.552 0 00-.35.023c-.068.027-.085.037-.122.04a.523.523 0 01-.24-.054.535.535 0 01-.212-.128c-.024-.028-.03-.047-.06-.115a.548.548 0 00-.235-.26c-.128-.064-.266-.079-.46-.077-.195.001-.332.017-.46.084a.554.554 0 00-.231.267c-.028.067-.035.086-.06.114a.515.515 0 01-.206.131.524.524 0 01-.24.059c-.036-.003-.056-.011-.124-.038a.55.55 0 00-.351-.019c-.137.046-.243.135-.38.274-.135.138-.221.245-.264.383a.552.552 0 00.023.35c.027.069.037.087.04.124a.523.523 0 01-.054.24.522.522 0 01-.128.21c-.028.024-.047.03-.115.06a.553.553 0 00-.26.237c-.065.128-.079.264-.077.459.001.194.022.33.086.459a.488.488 0 00.264.232c.068.029.087.034.115.058a.53.53 0 01.133.21.508.508 0 01.056.238c-.003.037-.011.054-.038.123a.52.52 0 00-.018.35c.046.137.135.246.273.382.139.136.246.223.384.265a.5.5 0 00.35-.025c.068-.027.087-.037.124-.04a.52.52 0 01.24.054.52.52 0 01.21.127c.024.029.03.048.06.116a.498.498 0 00.236.262c.054.027.11.045.17.057v1.075a.8.8 0 00.794.796h1.705a2.634 2.634 0 00-.107 1.058H6.304a.798.798 0 00-.749-.53c-.77.01-.998.003-1.586 0v-.71a.968.968 0 00-.164-.57.773.773 0 00-.629-.307c-.237 0-.42.138-.55.287-.205.228-.372.609-.538.936a.97.97 0 01-.076.121l-.442.147a.265.265 0 00-.248-.169H.27a.265.265 0 00-.266.266v2.644c0 .147.119.267.266.266h1.052a.265.265 0 00.233-.138c.17.067.355.138.562.138h1.588c.728 0 1.323-.594 1.323-1.322h.53a.799.799 0 00.746-.53h4.927a2.654 2.654 0 002.525 1.852c1.46 0 2.649-1.19 2.649-2.649A2.63 2.63 0 0016 12.88l.295-.23.163.209a.265.265 0 10.418-.326l-.65-.834a.267.267 0 00-.372-.047.265.265 0 00-.046.371l.163.21-.295.23a2.657 2.657 0 00-1.123-.704v-.646h.263a.265.265 0 100-.53h-2.115a.265.265 0 100 .53h.264v.644a2.66 2.66 0 00-1.504 1.208H9.524a.259.259 0 01-.264-.267v-1.072a.68.68 0 00.221-.069.51.51 0 00.23-.264c.028-.068.034-.089.058-.117a.532.532 0 01.21-.13.528.528 0 01.238-.06c.037.003.055.011.123.038a.55.55 0 00.351.019c.137-.046.245-.133.381-.271.136-.139.223-.248.266-.386a.552.552 0 00-.026-.351c-.028-.068-.037-.084-.04-.121a.53.53 0 01.054-.242.522.522 0 01.127-.21c.028-.024.048-.03.116-.06a.55.55 0 00.262-.235.637.637 0 00.057-.171h1.607c.435 0 .792-.36.792-.795V6.868a2.913 2.913 0 002.288-1.499 2.914 2.914 0 00-.7-3.646V1.06a.265.265 0 00-.265-.266zm-13.494.795H5.82v2.117a2.37 2.37 0 01-2.381 2.38 2.37 2.37 0 01-2.381-2.38zm12.965 0h.263v.793h-.792a.265.265 0 00-.266.265v.794h-.793a.265.265 0 00-.266.265v.793h-.468a2.378 2.378 0 012.322-2.91zm-10.584.53a.265.265 0 00-.24.152l-.35.75-.772.113a.265.265 0 00-.152.447l.566.584-.139.819a.265.265 0 00.391.275l.696-.387.681.38a.265.265 0 00.39-.272l-.138-.83.576-.575a.265.265 0 00-.146-.45l-.782-.116-.341-.738a.265.265 0 00-.24-.153zm12.436.353c.461.569.633 1.318.47 2.027h-.47zM11.89 5.028h4.266a2.382 2.382 0 01-4.266 0zM4.714 6.322a7.54 7.54 0 00-.212.557h-.137a.93.93 0 00-.925.926.93.93 0 00.794.915v1.07H2.91a.79.79 0 00-.204-.53.793.793 0 000-1.057.788.788 0 00.204-.528.8.8 0 00-.515-.744 7.335 7.335 0 00-.23-.608 2.9 2.9 0 001.275.293 2.9 2.9 0 001.274-.293zm4.261.027a.745.745 0 01.207.02c.019.042.056.15.145.252.09.102.223.193.413.27.19.076.349.104.484.092.136-.012.236-.063.28-.081a.764.764 0 01.16.13.755.755 0 01.135.161c-.018.044-.066.145-.075.28-.01.136.019.295.098.483.08.188.174.32.278.407.105.088.26.145.26.145a1.247 1.247 0 00-.001.409c-.044.019-.15.056-.252.145a1.06 1.06 0 00-.272.413 1.06 1.06 0 00-.09.484c.012.136.062.236.078.277-.002.004-.025.057-.13.163-.103.106-.157.131-.16.134-.042-.016-.143-.065-.278-.074a1.058 1.058 0 00-.485.098c-.188.08-.317.174-.405.279-.087.104-.123.21-.141.254a.78.78 0 01-.208.021.758.758 0 01-.205-.017c-.019-.044-.059-.15-.148-.252a1.048 1.048 0 00-.41-.272 1.055 1.055 0 00-.485-.09c-.135.012-.237.061-.279.078-.004-.002-.057-.025-.163-.13a.753.753 0 01-.132-.158c.018-.044.066-.147.075-.282a1.06 1.06 0 00-.1-.483 1.046 1.046 0 00-.28-.405c-.103-.087-.21-.126-.25-.143-.001-.004-.024-.058-.025-.206a.753.753 0 01.02-.207c.042-.019.15-.056.252-.146.102-.089.193-.222.27-.412a1.05 1.05 0 00.092-.482c-.012-.136-.061-.238-.08-.282a.725.725 0 01.13-.16.707.707 0 01.159-.133c.044.018.146.064.281.073.136.01.294-.019.483-.099.188-.08.32-.173.407-.278.087-.104.124-.21.142-.253a.701.701 0 01.205-.023zm-7.137 1.06h.28c.15 0 .263.114.263.265a.257.257 0 01-.264.264h-.265a.257.257 0 01-.264-.264.26.26 0 01.25-.266zm2.527 0h.53a.39.39 0 01.397.396.39.39 0 01-.398.396h-.529a.39.39 0 01-.396-.396.39.39 0 01.396-.397zm4.63.265c-.589 0-1.06.483-1.06 1.056 0 .581.478 1.059 1.06 1.059.581 0 1.058-.468 1.058-1.06a1.05 1.05 0 00-1.057-1.055zm-7.407.792h.53c.15 0 .263.113.263.264a.259.259 0 01-.264.266h-.529a.26.26 0 01-.266-.266.26.26 0 01.266-.264zm-.007 1.059h.536c.151 0 .264.112.264.264a.258.258 0 01-.264.265h-.529a.264.264 0 01-.007-.529zm1.125.793h1.792a.26.26 0 01.265.265v.53a.258.258 0 01-.265.264H2.38a.257.257 0 01-.264-.264v-.53a.79.79 0 00.59-.265zm11.05 1.848c1.174 0 2.12.945 2.12 2.118 0 1.174-.946 2.12-2.12 2.12a2.115 2.115 0 01-2.12-2.12c0-1.173.946-2.118 2.12-2.118zm0 .529a1.59 1.59 0 101.59 1.59.265.265 0 00-.263-.266h-1.061v-1.06a.265.265 0 00-.266-.264zm-10.58.27c.127 0 .158.03.197.083a.494.494 0 01.067.264v.974a.264.264 0 00.265.266c.88 0 .956.01 1.852 0 .151 0 .264.112.264.264a.258.258 0 01-.264.265h-.794a.265.265 0 00-.265.264v.266a.785.785 0 01-.793.793H2.117c-.208-.029-.357-.099-.529-.169v-1.757l.598-.2a.445.445 0 00.236-.165c.05-.062.09-.129.129-.2.14-.257.301-.642.473-.843.077-.088.124-.106.152-.106z"/></svg>