<svg height="32" width="32" xmlns="http://www.w3.org/2000/svg"><path d="M13.5 1.998a.5.5 0 00-.494.426l-.47 3.172c-.495.165-.975.363-1.44.595L8.52 4.281a.5.5 0 00-.652.05L4.332 7.866a.5.5 0 00-.049.65l1.908 2.573c-.232.467-.431.948-.595 1.443l-3.168.469a.5.5 0 00-.428.496v5a.5.5 0 00.426.494l3.174.47c.164.494.363.974.595 1.438l-1.912 2.577a.5.5 0 00.049.652l3.537 3.537a.5.5 0 00.652.047l2.57-1.906c.468.233.95.43 1.446.595l.465 3.141a.5.5 0 000 .004l.004.023a.5.5 0 00.57.428h4.848A.5.5 0 0019 29.53l.465-3.133c.494-.164.974-.362 1.44-.595l2.574 1.91a.5.5 0 00.652-.049l3.537-3.537a.5.5 0 00.049-.65l-1.908-2.575c.232-.466.431-.946.595-1.441l3.168-.47a.5.5 0 00.428-.493v-5a.5.5 0 00-.426-.496l-3.174-.47a10.986 10.986 0 00-.595-1.438l1.912-2.576a.5.5 0 00-.049-.65L24.131 4.33a.5.5 0 00-.652-.05l-2.57 1.906c-.468-.233-.95-.432-1.446-.596l-.469-3.168a.5.5 0 00-.494-.424h-5zm.432 1h4.136l.448 3.018a.5.5 0 00.351.406c.651.194 1.28.454 1.88.775a.5.5 0 00.534-.039l2.448-1.816 2.927 2.926-1.822 2.455a.5.5 0 00-.037.535 10 10 0 01.775 1.87.5.5 0 00.405.352l3.023.448v4.138l-3.018.446a.5.5 0 00-.406.351 9.998 9.998 0 01-.775 1.88.5.5 0 00.037.534l1.818 2.45-2.927 2.925-2.454-1.82a.5.5 0 00-.535-.039 9.968 9.968 0 01-1.74.728v-4.335a6 6 0 003-5.188 6 6 0 00-3.273-5.336.5.5 0 00-.727.443v4.61l-2 1.2-2-1.2V11.1a.5.5 0 00-.516-.5.5.5 0 00-.21.054A6.003 6.003 0 0010 15.998a5.998 5.998 0 003 5.188v4.34a9.995 9.995 0 01-1.746-.73.5.5 0 00-.535.04L8.27 26.652l-2.927-2.925 1.822-2.456a.5.5 0 00.037-.535 10 10 0 01-.775-1.87.5.5 0 00-.405-.352L3 18.066V13.93l3.018-.448a.5.5 0 00.406-.351c.194-.651.454-1.28.775-1.879a.5.5 0 00-.037-.535l-1.818-2.45L8.27 5.343l2.454 1.82a.5.5 0 00.535.04 10.028 10.028 0 011.873-.778.5.5 0 00.35-.404l.449-3.022zM13 12.217v3.781a.5.5 0 00.242.428l2.5 1.5a.5.5 0 00.516 0l2.5-1.5a.5.5 0 00.242-.428v-3.775c1.17.936 1.998 2.24 2 3.775 0 2.767-2.233 5-5 5s-5-2.233-5-5c0-1.537.828-2.844 2-3.781zm1 9.43a5.953 5.953 0 002 .351c.702 0 1.373-.129 2-.352v7.352h-4v-7.352z" style="line-height:normal;text-indent:0;text-align:start;text-decoration-line:none;text-decoration-style:solid;text-decoration-color:#000;text-transform:none;block-progression:tb;white-space:normal;isolation:auto;mix-blend-mode:normal;solid-color:#000;solid-opacity:1" color="#000" font-weight="400" font-family="sans-serif" overflow="visible"/></svg>