<svg viewBox="0 0 22.574 22.576" width="27" height="27" xmlns="http://www.w3.org/2000/svg"><g data-name="Layer 2"><g data-name="Layer 1"><path d="M.35 5.98l1.35.22.023.054-.8 1.11a.342.342 0 000 .4 4.93 4.93 0 001.12 1.121.344.344 0 00.4 0l1.11-.806.055.023.216 1.354c.115.443.721.3 1.077.349.356-.049.962.094 1.078-.349L6.2 8.1c.018-.007.037-.014.055-.023l1.109.807a.344.344 0 00.4 0 4.923 4.923 0 001.12-1.124.341.341 0 000-.4l-.8-1.11.016-.05 1.355-.22c.442-.11.3-.738.35-1.077-.048-.339.092-.967-.35-1.078L8.1 3.61l-.022-.055.8-1.108a.341.341 0 000-.4A4.868 4.868 0 007.76.92a.341.341 0 00-.4 0l-1.11.807L6.2 1.7 5.98.349A.342.342 0 005.7.065a4.882 4.882 0 00-1.591 0 .341.341 0 00-.282.283L3.609 1.7l-.054.022L2.444.921a.341.341 0 00-.4 0A4.9 4.9 0 00.919 2.047a.342.342 0 000 .4l.805 1.108-.024.055-1.35.215c-.442.114-.3.728-.35 1.078.048.35-.092.964.35 1.077zm.358-1.519l1.3-.208a.342.342 0 00.271-.23c.056-.228.294-.476.118-.707L1.623 2.25a4.21 4.21 0 01.626-.626l1.066.776c.234.174.475-.059.708-.118a.342.342 0 00.23-.271L4.46.707a4.213 4.213 0 01.884 0l.207 1.3a.341.341 0 00.23.27c.233.06.474.294.708.119l1.066-.774a4.2 4.2 0 01.625.626l-.774 1.068c-.175.235.06.474.119.709a.341.341 0 00.271.228l1.3.208a3.959 3.959 0 010 .884l-1.3.206a.345.345 0 00-.271.23c-.06.235-.294.473-.119.708l.774 1.067a4.2 4.2 0 01-.625.625l-1.066-.774c-.234-.176-.476.061-.709.119a.343.343 0 00-.229.271L5.344 9.1a4.353 4.353 0 01-.884 0l-.207-1.3c-.037-.284-.387-.3-.581-.417a.343.343 0 00-.357.028l-1.066.774a4.2 4.2 0 01-.625-.625L2.4 6.489c.176-.231-.062-.478-.118-.706a.345.345 0 00-.271-.232l-1.3-.206a4.082 4.082 0 01-.003-.884zM4.9 6.385a1.483 1.483 0 000-2.965 1.483 1.483 0 000 2.965zm0-2.285a.8.8 0 010 1.6.8.8 0 010-1.6zm15.962 0a.342.342 0 01.342.342v8.209a.342.342 0 11-.684 0V4.446a.342.342 0 01.344-.346zm-3.19 3.2a.342.342 0 01.342.341v4.106a.343.343 0 01-.685 0V7.638a.342.342 0 01.343-.338zm-3.193 1.821a.342.342 0 01.342.342v3.192a.342.342 0 11-.684 0V9.463a.343.343 0 01.342-.342zm-2.85 2.166v9.578a.342.342 0 01-.342.342H2.052c-.047.556.184 1.363-.342 1.369s-.295-.813-.342-1.369C.811 21.16.006 21.391 0 20.865s.811-.295 1.368-.342v-2.508C.81 17.968.006 18.2 0 17.673s.811-.295 1.368-.342v-2.508C.81 14.776.006 15.007 0 14.481s.811-.3 1.368-.343v-2.507H.342a.343.343 0 010-.685H1.71a.343.343 0 01.342.343v3.685l4.51-4.509a.34.34 0 01.483 0l1.013 1.012L13.536 6a.343.343 0 01.484 0l1.126 1.127L20.6 1.673l-.482-.481L22.1.662l-.53 1.977-.481-.482-5.7 5.7a.343.343 0 01-.483 0l-1.128-1.132L8.3 12.2a.351.351 0 01-.484 0L6.8 11.19l-4.748 4.752v4.581h2.509v-5.587a.342.342 0 01.684 0v5.587h2.508v-6.954a.342.342 0 11.684 0v6.954h2.507v-9.236a.342.342 0 01.685 0zm10.879 5.591a.343.343 0 00-.283-.283l-1.356-.215-.022-.054.8-1.109a.342.342 0 000-.4 4.868 4.868 0 00-1.125-1.126.339.339 0 00-.4 0l-1.11.806-.055-.023-.215-1.356a.343.343 0 00-.282-.283 4.882 4.882 0 00-1.591 0 .341.341 0 00-.282.283l-.216 1.356-.054.022-1.111-.8a.341.341 0 00-.4 0 4.9 4.9 0 00-1.124 1.126.342.342 0 000 .4l.806 1.109-.023.054-1.354.215c-.442.114-.3.731-.35 1.078.048.347-.092.965.349 1.078l1.355.216.023.054-.807 1.109a.344.344 0 000 .4 4.914 4.914 0 001.123 1.125.342.342 0 00.4 0l1.11-.8.055.022.216 1.355c.115.443.723.3 1.077.348.354-.048.962.1 1.078-.348l.215-1.355.055-.023 1.11.806a.341.341 0 00.4 0 4.9 4.9 0 001.124-1.125.342.342 0 000-.4l-.8-1.11.022-.053 1.356-.216a.341.341 0 00.283-.283 4.821 4.821 0 00.003-1.6zm-.642 1.237l-1.3.207c-.288.041-.3.381-.419.584a.342.342 0 00.029.354l.774 1.067a4.2 4.2 0 01-.625.625l-1.066-.775c-.233-.174-.477.062-.709.119a.34.34 0 00-.228.271l-.208 1.3a4.213 4.213 0 01-.884 0l-.207-1.3a.343.343 0 00-.229-.271c-.243-.06-.471-.293-.709-.119l-1.066.775a4.245 4.245 0 01-.625-.625l.774-1.067c.176-.234-.061-.476-.118-.707a.34.34 0 00-.271-.231l-1.3-.207a4.213 4.213 0 010-.884l1.3-.207c.289-.041.292-.375.417-.582a.342.342 0 00-.028-.356l-.774-1.066a4.2 4.2 0 01.625-.625l1.066.773c.235.175.474-.059.708-.118a.342.342 0 00.23-.27l.208-1.3a4.2 4.2 0 01.883 0l.208 1.3a.34.34 0 00.229.27c.233.059.475.294.708.119l1.066-.774a4.2 4.2 0 01.626.625l-.775 1.066c-.175.235.06.474.119.709a.341.341 0 00.271.229l1.3.207a4.082 4.082 0 010 .884zm-4.194-1.924a1.482 1.482 0 000 2.964 1.482 1.482 0 000-2.964zm0 2.28a.8.8 0 010-1.6.8.8 0 010 1.6z" data-name="data management"/></g></g></svg>